<svg xmlns="http://www.w3.org/2000/svg" viewBox="0 0 64 64">
  <title>Andromeda Kinship</title>
  <rect width="64" height="64" rx="10" fill="#fff"/>
  <svg x="3" y="6" width="58" height="52" viewBox="1030.300048828125 187.5 2939.39990234375 2624.900146484375" fill="#000"><path d="M2961.3,2760.9c-23.9-0.9-47.9-1.3-71.8-2l-143.6-3.6c-57.2-1-114.4-1.5-171.7-1.9l-15.4-7.4l0-0.4l-17.6-8.2l16.2-3.3   l-3.8-32.4l9.3-11.9l-32.1,9.2l0.4-2.6l-13.7,1.4l15.5-14.1l14.5-104l5.4-66.9c20.6,0.9,41.2,1.4,61.9,1.4   c204.2,0,401.4-45.1,580.3-130.6c18.6,19.5,44.7,31.7,73.8,31.7c56.3,0,101.9-45.6,101.9-101.9c0-9.7-1.5-19.1-4-28.1   c71.5-48.2,138.9-103.7,201.2-166L3547,2098c-59.8,59.8-124.3,113-192.7,159.5c-18.2-27.8-49.5-46.1-85.2-46.1   c-56.3,0-101.9,45.6-101.9,101.9c0,16.3,3.9,31.6,10.7,45.3c-173.8,82.2-365,125.5-562.9,125.5c-19.9,0-39.8-0.5-59.5-1.4   l15.2-187.3l-21.8,31.2l24.6-63.8l29.8-108.4l22.1-160.7l-193-8.1l195.3-8.2l0-0.5l79.7,2l-37.5-156l-65.2-89.6l62.6,19.1   c0.2-9.8,0.6-24.7,0.9-39.8c82.5-27.1,158.2-73.2,221.3-136.3c131.7-131.7,204.3-306.9,204.3-493.2c0-153.8-49.5-299.9-140.9-420.3   l53.7-29.4l-64-35l-35-64l-26.1,47.7c-339.1-330.7-883.9-328.1-1219.8,7.7c-60.5,60.5-112.9,127-156.8,198   c-18.2-9.3-38.8-14.7-60.7-14.7c-74,0-133.9,60-133.9,133.9c0,56.2,34.6,104.2,83.7,124.1c-32.2,103.3-49,212-49,323.3   c0,288.9,112.5,560.4,316.7,764.7c164.8,164.8,364.7,281.6,582.9,343.5l-19.2,51.3l-14.2,225.1l9.2-1.7l-9.9,13.5l-0.1,1.3   l-2.1,2.6c-12.2,0.2-24.4,0.2-36.7,0.4l-143.6,3.6l-71.8,1.9l-71.8,3c-191.4,7.5-382.8,18.6-574.2,39.8v6l1148.4,3l1148.4-3v-6   c-191.4-21.1-382.8-32.1-574.2-39.6L2961.3,2760.9z M2441.4,2110.3l29.5,179.7l-8.5,119.7l6.6,66.2c-38.2-4.2-76-9.9-113.4-17.3   l19.6-93.8l0.2-0.6l40.3-112.3L2441.4,2110.3z M2523.2,1377.7l-33.7,6.3l-10.7,6.6c-4.3,0.7-8.5,1.4-12.8,1.8l3.1-4.7l-1,0.2   l46.9-67.4l-17.5-82.5l-39-68.2l-11.8-55l-112.8-11.9l29.3-29.1l-70,25.1l-19.2-19.2c-25.5,25.5-42.4,56.5-50.7,89.2l-12.7,16   v-13.9l-23.1,55.3l11.9,54.8l42.4,74.8l51.2,15.3c23.7,19.1,50.3,33,78.2,41.7l4.1,20.6l17-0.9l-14.8,12.2l0.3,1.3l-142.5,88.5   l-9.9,57.5l-1.5,45.6c-38.1-22.4-74-49.8-106.7-82.5c-164.5-164.5-164.5-432.1,0-596.5c130.4-130.4,342.6-130.4,473,0   c86.1,86.1,100.3,217.3,42.6,318.4l-19.3,6.9l-21.3,5.3l-18.3,48.7l-29.3,29.4C2537.8,1371.1,2530.6,1374.6,2523.2,1377.7z    M2289.2,1669.9c-2.5-1-4.9-2.1-7.4-3.2l3.5-28.9L2289.2,1669.9z M2291.5,2337.4l-0.9,37.5l-6.9-16.6l-28.5,76.3   c-214.2-60.4-410.5-174.8-572.2-336.5c-198.6-198.6-308-462.6-308-743.5c0-108.6,16.4-214.6,47.9-315.3c7,1.1,14,1.9,21.3,1.9   c74,0,133.9-60,133.9-133.9c0-41.3-18.7-78.2-48.1-102.8c42.7-69.4,93.8-134.2,152.9-193.3c324.6-324.6,851.2-326.7,1178.6-6.6   l-52.9,28.9l64,35l35,64l25.4-46.4c84.9,114.2,130.8,252.1,130.8,397.1c0,178.3-69.4,345.9-195.5,472   c-58.2,58.2-126.6,100-199.5,125.5c0.2-8.8,0.3-15.8,0.3-19.1c0-8.2-19.1-55.7-37.6-96.7l-0.5-1.2l-8.8-66.7l-52,44.9l49.5-64.1   l-0.1-0.9l60.1-55.6c73.1-109,114.6-167.6,123.5-174.3c-0.6,0.3-0.9,0.7-1.2,0.9c8.4-11.4,54.7-135.7,82.5-212.7v-27.8l23.2-63.3   l-9.8-58.8l-36.5-33.2l-19.7,38l27,5.8l-33.8,7.2l-0.6,1.3h-19.6l7.5,27l22.4,53.7l-1.1,3.1c-0.5,1.4-51.2,142.9-53.2,149.1   c-2.1,6.4-46,64.1-82.4,111.3l-1.5,2l-32.8,11.7c46.3-107.6,25.7-237.3-62.1-325c-142.1-142.1-373.3-142.1-515.4,0   c-176.2,176.2-176.2,462.8,0,638.9c38.1,38.1,80.8,70,126.7,95.3l-3.8,111.7l-0.9,1.7l-7.5,29.9l-3-11.8l-35.7,61.7l-14.6,110.8   v121.7l23.2,9.5l31.9-75l-14.9-64l0.5-1.1l-3-26.7l9.3,12.2l62.1-145.6l11.5-108.3c5.1,2.1,10.3,4,15.5,6l0.2,1.9l28.3,68.3   l16.6-37.6l-8.2,57.9l0.3,0.7l-0.8,2.9l-10.9,39.1l-31.5,84l-2.3,57.1l53.4,7.3l-54,7.4l-1.3,31l8.6,312.7L2291.5,2337.4z    M2475,2670.5c-1.8,1.1-3.9,1.7-6.3,1.7c-5.2,0-13.4,0.6-20,1.1l20.6,54.3l-9,25c-0.5,0-0.9,0-1.4,0c-55,0.5-110.1,0.9-165.1,1.3   l55.7-265.8c39.9,7.9,80.3,14,121.1,18.3l-3.8,126.8c9.1,12.2,12.4,20,13.3,24.9l20.6,5.5L2475,2670.5z" style=""></path><circle cx="3454" cy="1386.1" r="53.9" style=""></circle><polygon points="1069.7,623.2 1059.4,604.3 1049.1,623.2 1030.3,633.5 1049.1,643.8 1059.4,662.6 1069.7,643.8 1088.6,633.5  " style=""></polygon><polygon points="1775.6,1570.4 1765.1,1589.6 1745.9,1600.1 1765.1,1610.6 1775.6,1629.8 1786.1,1610.6 1805.3,1600.1    1786.1,1589.6  " style=""></polygon><polygon points="1158.4,1774.7 1127.5,1831.2 1071.1,1862.1 1127.5,1893 1158.4,1949.4 1189.3,1893 1245.7,1862.1 1189.3,1831.2     " style=""></polygon><polygon points="3749.5,943.1 3743.6,953.8 3733,959.6 3743.6,965.4 3749.5,976.1 3755.3,965.4 3765.9,959.6 3755.3,953.8  " style=""></polygon><polygon points="3947.8,1646.3 3935.8,1624.3 3923.8,1646.3 3901.8,1658.3 3923.8,1670.3 3935.8,1692.2 3947.8,1670.3    3969.7,1658.3  " style=""></polygon><polygon points="3400.1,287.7 3417.8,255.3 3450.2,237.6 3417.8,219.9 3400.1,187.5 3382.4,219.9 3350,237.6 3382.4,255.3  " style=""></polygon></svg>
</svg>
